<svg xmlns="http://www.w3.org/2000/svg" viewBox="0 0 85.21 113.7"><defs><style>.cls-1{fill:#fff;}</style></defs><g id="Capa_2" data-name="Capa 2"><g id="Capa_1-2" data-name="Capa 1"><path class="cls-1" d="M43.16,0C22.07,0,4.91,15.33,4.91,34.17v.88A1.12,1.12,0,0,0,6,36.17H80.3a1.12,1.12,0,0,0,1.12-1.12v-.88C81.42,15.33,64.26,0,43.16,0ZM9.8,32.17a.74.74,0,0,1-.74-.81C10.67,16,25.35,4,43.16,4s32.5,12,34.11,27.36a.74.74,0,0,1-.74.81ZM30.4,8.09c-5.65,0-18,10.76-18,18.85a2,2,0,1,0,4,0c0-6,10.65-14.85,14-14.85a2,2,0,0,0,0-4ZM80.15,48.94a2,2,0,0,0-.78-2.72l-7.51-4.17a5.29,5.29,0,0,0-5.34.12l-4.94,3.06a1.3,1.3,0,0,1-1.33,0l-5.37-3.13a5.3,5.3,0,0,0-5.4,0l-5.07,3.07a1.28,1.28,0,0,1-1.32,0l-5.21-3.09a5.26,5.26,0,0,0-5.44,0l-5.06,3.07a1.3,1.3,0,0,1-1.32,0L20.7,42.09A5.3,5.3,0,0,0,15.43,42L8,46.22a2,2,0,0,0,2,3.49l7.46-4.18a1.27,1.27,0,0,1,1.28,0L24,48.69a5.27,5.27,0,0,0,5.42,0l5.06-3.07a1.3,1.3,0,0,1,1.33,0l5.2,3.1a5.26,5.26,0,0,0,5.44,0l5.07-3.07a1.28,1.28,0,0,1,1.31,0l5.38,3.13a5.26,5.26,0,0,0,5.44-.07l4.94-3.06a1.31,1.31,0,0,1,1.3,0l7.51,4.17a2,2,0,0,0,1,.26A2,2,0,0,0,80.15,48.94ZM9,57.11H77a2,2,0,0,0,0-4H9a2,2,0,0,0,0,4ZM75.2,61.92a2,2,0,0,0,0,4h2.52a2,2,0,0,0,0-4Zm-9.8,0a2,2,0,0,0,0,4h4.9a2,2,0,0,0,0-4ZM9,65.92h2.51a2,2,0,0,0,0-4H9a2,2,0,0,0,0,4Zm27-4a2,2,0,0,0,0,4h4.9a2,2,0,1,0,0-4Zm-19.61,0a2,2,0,0,0,0,4h4.9a2,2,0,0,0,0-4Zm9.8,0a2,2,0,0,0,0,4h4.91a2,2,0,0,0,0-4Zm29.42,0a2,2,0,0,0,0,4H60.5a2,2,0,0,0,0-4Zm-9.8,0a2,2,0,0,0,0,4h4.9a2,2,0,0,0,0-4Zm29.06,8.17H12a6.59,6.59,0,0,0-6.58,6.58v7.19A6.58,6.58,0,0,0,12,90.43H74.85a6.58,6.58,0,0,0,6.57-6.57V76.67A6.58,6.58,0,0,0,74.85,70.09Zm2.57,13.77a2.58,2.58,0,0,1-2.57,2.57H12a2.58,2.58,0,0,1-2.58-2.57V76.67A2.59,2.59,0,0,1,12,74.09H74.85a2.58,2.58,0,0,1,2.57,2.58Z"/><path class="cls-1" d="M36.86,106.25a3.39,3.39,0,0,1,.32-.44,3.15,3.15,0,0,0,1-3.52,3.22,3.22,0,0,0-3-2.35c-2.4-.15-4.82,0-7.24,0-.06,0-.12.09-.26.19v1.6l1.22.39v9.1H26.4l-3-9.09,1.14-.39V99.81c-2.38,0-4.65-.09-7,0v1.81l1.25.48c-1,3-2,6-3,8.9l-1.1.44v1.77h4.9v-1.78l-1.2-.42.69-2H22.9l.65,1.94-1.21.58.1,1.68H33.08v-1.78L31.84,111v-3.56a4.08,4.08,0,0,1,3.32.59v5.19H39v-1.76L37.91,111C37.6,109.39,38.35,107.56,36.86,106.25Zm-17.11.5c.4-1.14.75-2.17,1.11-3.19l.35,0c.34,1,.67,2,1.06,3.17ZM34.44,105a22.63,22.63,0,0,1-2.62.21v-3.36c.93,0,1.77,0,2.59.16a1.27,1.27,0,0,1,1.19,1.35C35.62,104.28,35.3,104.84,34.44,105Zm33.23-2.93,1.16-.4V99.8c-2.37,0-4.63-.1-6.94.06v1.8l1.2.47c-1,3.05-2.06,6-3.07,9h-2.5V102l1.24-.37c0-.58-.06-1.16-.08-1.78H53.36v1.83l1.22.32v9l-1.3.43.09,1.76H63.83v-1.79l-1.14-.42.66-2h3.86l.57,2-1.16.42v1.79h5l.09-1.69L70.59,111Zm-3.62,4.65c.38-1.16.73-2.18,1.07-3.2h.36l1.06,3.19ZM7.94,109l1.28.07,1.26.08c-.49,1.5-1.84,2.2-3.73,2a4,4,0,0,1-3.89-3.55c-.38-2.41.58-4.58,2.53-5.24a6.87,6.87,0,0,1,2.86-.17c1.37.16,2.09,1.23,2.58,2.46l1.9-.1a15,15,0,0,0-.13-4.9l-2.64.49c-3.85-2-8.32.5-9.52,4.16a6.82,6.82,0,0,0,.49,5.89c2.41,3.83,5.8,4.33,9.73,2.35l.59.8,1.87-.12v-4l1.31-.38v-2H7.94Zm74.71-3.28c-1.17-.51-2.42-.85-3.64-1.27a1.22,1.22,0,0,1-1-1.41,1.4,1.4,0,0,1,1.27-1.32,2.3,2.3,0,0,1,2.42,1.07c.25.39.45.81.73,1.31l1.79-.13V99.76L81.8,100a2.09,2.09,0,0,1-.86-.21,4.17,4.17,0,0,0-5.39,2.38c-.79,2.37.31,4.38,2.83,5.13,1,.29,2,.53,2.91.88a1.49,1.49,0,0,1,1.12,1.91,1.8,1.8,0,0,1-1.72,1.48A2.8,2.8,0,0,1,78,109.9c-.2-.42-.36-.86-.57-1.38l-1.77.1a9.48,9.48,0,0,0,.17,4.77l2.27-.27a18.76,18.76,0,0,0,2.39.54,4.27,4.27,0,0,0,4.57-3C85.59,108.25,84.86,106.63,82.65,105.69Zm-32.4,3c-.23.33-.41.63-.62.9a3.57,3.57,0,0,1-2.53,1.53,3.94,3.94,0,0,1-4.53-3c-.68-2.42.21-4.89,2.1-5.79s3.92-.25,5.29,1.84h2V99.76l-2.88.28c-2.35-1.06-4.81-.62-7.14,1.1-3.23,2.39-3.17,8.78.63,11.33,2.91,2,6.88,1.54,8.9-1a3.3,3.3,0,0,0,.92-2.7Zm20-4.87h2.55a16.4,16.4,0,0,0,1.55-4H71.9ZM58.85,96.65l-.12-.3H55.91l-1.66,2.78h2.3Z"/></g></g></svg>